<svg xmlns="http://www.w3.org/2000/svg" width="19.607" height="27.502" viewBox="0 0 19.607 27.502"><defs><style>.a{fill:#1567b0;fill-rule:evenodd;}</style></defs><g transform="translate(-0.004 -0.007)"><path class="a" d="M15.123,27.487a2.283,2.283,0,0,0,1.924-2c.081-.787-.272-1.507-.246-2.266,2.905.1,2.635-1.219,2.63-3.792a5.721,5.721,0,0,1,.024-1.386c.786-2.693-1.63-2.3-2.015-2.666-.358-.785-.629-6.14-.657-7.366-.064-2.731.694-5.464-2.424-5.663C13.48-.237,12.7.031,9.805.031A8.381,8.381,0,0,0,6.673.279C5.634.77,5.648,1.25,5.216,2.307c-.652.221-.925.027-1.526.505-1.355,1.077-.847,2.774-.907,5.2-.018.722-.338,6.309-.606,7.194-.193.636-1.664.079-2.078,1.322a2.368,2.368,0,0,0,.037,1.438c.253.684.333.252.317,1.279-.041,2.64-.206,4.028,2.359,3.982.027,1.061-.54,1.806-.075,2.911a2.3,2.3,0,0,0,4.2,0A19.918,19.918,0,0,0,7.5,23.217l4.611-.011c.279,2.124.455,4.559,3.009,4.281Zm-1.657-9.755c-1.775.37-.929,2.625-.572,4.777.323,1.944.337,4.5,2.206,4.075.908-.206,1.153-1.016.977-2.015l-.928-5.418c-.155-.882-.661-1.632-1.683-1.419Zm-7.883.017c-1.009.283-1.02.851-1.215,1.955l-.915,5.446a1.383,1.383,0,0,0,1.714,1.43c.914-.21,1.028-.991,1.184-1.939l.922-5.483a1.367,1.367,0,0,0-1.69-1.409Zm6.154.109.322-.309a2.125,2.125,0,0,1,1.447-.731c-.268-.647-1.2-1.525-.944-2.271.8-.279.841.362,1.2.931.345.549.72.963.99,1.411.458-.506-.1-1.5,1.667-1.618l-1.669-2.81A9.81,9.81,0,0,0,13.019,9.6a9.06,9.06,0,0,0-1.1,1.539c-.532.784-.771.793-.762,1.939l.025,3.949c.118.417.122.007.556.827ZM3.194,15.278a1.364,1.364,0,0,1,1.154.413c.351.407.271.7.395.992.08.19,0,.069.121.205.254-.42.642-.839.953-1.355.353-.584.432-1.29,1.232-.99.254.755-.644,1.631-.928,2.22A2.7,2.7,0,0,1,7.9,17.878c.287-.9.557-.209.557-1.39V12.621c0-.547-.568-1.208-.831-1.6A8.218,8.218,0,0,0,6.588,9.6,10.1,10.1,0,0,0,4.9,12.4c-.3.555-.51.925-.837,1.463a16.188,16.188,0,0,0-.865,1.413ZM7.626,9.029c.159.41,1.064,1.63,1.4,2.165.225.361.253.435.783.436s.555-.077.785-.437l1.4-2.165a6.7,6.7,0,0,0-4.361,0Zm-6.674,7.7a1.456,1.456,0,0,0,2.65,1.1c.328-.553.457-1.687-.507-1.651A5.459,5.459,0,0,0,.952,16.725Zm15.132-.408c-.6.458-.206,1.48.174,1.815a1.71,1.71,0,0,0,1.954.048c.471-.341.838-1.34.092-1.634-.534-.21-1.749-.589-2.22-.229ZM9.53,17.1l.509-.008.048-4.4-.556,0V17.1Zm-.555,2.3,1.628,0,.041-1.229-1.654,0L8.974,19.4Zm.833-18A3.294,3.294,0,1,1,6.513,4.693,3.294,3.294,0,0,1,9.808,1.4Z" transform="translate(0 0)"/></g></svg>